<?xml version="1.0" standalone="no"?><!DOCTYPE svg PUBLIC "-//W3C//DTD SVG 1.1//EN" "http://www.w3.org/Graphics/SVG/1.1/DTD/svg11.dtd"><svg t="1584083731810" class="icon" viewBox="0 0 1024 1024" version="1.1" xmlns="http://www.w3.org/2000/svg" p-id="9188" xmlns:xlink="http://www.w3.org/1999/xlink" width="200" height="200"><defs><style type="text/css"></style></defs><path d="M1001.468587 514.583893c0 269.390507-219.204267 489.741653-491.677014 488.94976-197.946027-0.750933-373.957973-119.620267-449.19808-298.277546-24.69888-57.893547-37.819733-122.740053-37.819733-190.672214 0-269.35296 218.412373-488.557227 490.888533-487.765333 270.5408 0.750933 487.806293 219.204267 487.806294 487.765333z" fill="#F91037" p-id="9189"></path><path d="M747.926187 460.561067H275.176107c-14.660267 0-28.5696 6.16448-38.608214 15.848106-9.24672 10.038613-15.4112 23.514453-15.4112 38.17472 0 15.45216 6.16448 28.5696 15.4112 39.400107 10.038613 9.24672 23.947947 15.4112 38.608214 15.4112H747.926187c15.056213 0 28.532053-6.16448 38.212266-15.4112 9.997653-10.827093 16.203093-23.947947 16.203094-39.400107 0-14.660267-6.20544-28.136107-16.203094-38.17472a53.876053 53.876053 0 0 0-38.212266-15.848106z" fill="#FFFFFF" p-id="9190"></path></svg>